<svg xmlns="http://www.w3.org/2000/svg" data-v-fde0c5aa="" width="235" height="58" style=""><rect id="backgroundrect" width="100%" height="100%" x="0" y="0" fill="none" stroke="none" class="" style=""/><!----><defs data-v-fde0c5aa=""><!----></defs><defs data-v-fde0c5aa=""><!----></defs><defs data-v-fde0c5aa=""><!----></defs><!----><g class="currentLayer" style=""><title>Layer 1</title><rect data-v-fde0c5aa="" fill="#360CAA" x="0.0000011903516750066956" y="0.0000034421681789353897" width="234.6153738547921" height="58.24174942041213" class="logo-background-square" id="svg_1"/><g data-v-fde0c5aa="" id="9ee18ecd-1c16-45cd-84d1-37d4c6d1b74c" fill="#ffffff" class=""><path d="M95.24072895973583,41.28144951442576 L95.24072895973583,41.28144951442576 Q92.50775860767271,41.28144951442576 89.93555121749566,40.59246539205691 L89.93555121749566,40.59246539205691 L89.93555121749566,40.59246539205691 Q87.3633438273186,39.92644740710034 85.75571420845793,38.80110667389789 L85.75571420845793,38.80110667389789 L87.8456327129768,34.11601464178966 L87.8456327129768,34.11601464178966 Q89.36139778218828,35.10355855051836 91.35945173705795,35.72364426065033 L91.35945173705795,35.72364426065033 L91.35945173705795,35.72364426065033 Q93.35750569192763,36.320763833369995 95.28666123456043,36.320763833369995 L95.28666123456043,36.320763833369995 L95.28666123456043,36.320763833369995 Q98.93827708311537,36.320763833369995 98.93827708311537,34.48347284038638 L98.93827708311537,34.48347284038638 L98.93827708311537,34.48347284038638 Q98.93827708311537,33.51889506907 97.90480089956208,33.05957232082409 L97.90480089956208,33.05957232082409 L97.90480089956208,33.05957232082409 Q96.8483585785965,32.60024957257818 94.55174483736698,32.07202841209539 L94.55174483736698,32.07202841209539 L94.55174483736698,32.07202841209539 Q92.00250358460221,31.543807251612606 90.30300941609238,30.90075540406835 L90.30300941609238,30.90075540406835 L90.30300941609238,30.90075540406835 Q88.60351524758254,30.280669693936375 87.3633438273186,28.902701449198673 L87.3633438273186,28.902701449198673 L87.3633438273186,28.902701449198673 Q86.14613854446695,27.524733204460944 86.14613854446695,25.159221050994546 L86.14613854446695,25.159221050994546 L86.14613854446695,25.159221050994546 Q86.14613854446695,23.115234821300277 87.27147927766941,21.46167292761504 L87.27147927766941,21.46167292761504 L87.27147927766941,21.46167292761504 Q88.39682001087188,19.808111033929777 90.6475014772768,18.84353326261339 L90.6475014772768,18.84353326261339 L90.6475014772768,18.84353326261339 Q92.87521680626944,17.878955491296978 96.11344218140306,17.878955491296978 L96.11344218140306,17.878955491296978 L96.11344218140306,17.878955491296978 Q98.34115751039567,17.878955491296978 100.49997442715144,18.36124437695517 L100.49997442715144,18.36124437695517 L100.49997442715144,18.36124437695517 Q102.63582520649487,18.866499400025674 104.28938710018014,19.83107717134206 L104.28938710018014,19.83107717134206 L102.31429928272274,24.562101478274883 L102.31429928272274,24.562101478274883 Q99.09904004500143,22.81667503494043 96.09047604399075,22.81667503494043 L96.09047604399075,22.81667503494043 L96.09047604399075,22.81667503494043 Q94.18428663877026,22.81667503494043 93.31157341710303,23.39082847024781 L93.31157341710303,23.39082847024781 L93.31157341710303,23.39082847024781 Q92.46182633284812,23.94201576814291 92.46182633284812,24.837695127222418 L92.46182633284812,24.837695127222418 L92.46182633284812,24.837695127222418 Q92.46182633284812,25.75634062371421 93.47233637898913,26.192697234547836 L93.47233637898913,26.192697234547836 L93.47233637898913,26.192697234547836 Q94.50581256254239,26.652019982793718 96.80242630377191,27.13430886845194 L96.80242630377191,27.13430886845194 L96.80242630377191,27.13430886845194 Q99.37463369394897,27.685496166347008 101.05116172504651,28.305581876478982 L101.05116172504651,28.305581876478982 L101.05116172504651,28.305581876478982 Q102.75065589355637,28.925667586610956 103.96786117640801,30.303635831348657 L103.96786117640801,30.303635831348657 L103.96786117640801,30.303635831348657 Q105.20803259667196,31.658637938674076 105.20803259667196,34.00118395472819 L105.20803259667196,34.00118395472819 L105.20803259667196,34.00118395472819 Q105.20803259667196,36.04517018442246 104.08269186346948,37.67576594069541 L104.08269186346948,37.67576594069541 L104.08269186346948,37.67576594069541 Q102.95735113026703,39.30636169696837 100.7066696638621,40.29390560569706 L100.7066696638621,40.29390560569706 L100.7066696638621,40.29390560569706 Q98.45598819745717,41.28144951442576 95.24072895973583,41.28144951442576 L95.24072895973583,41.28144951442576 zM116.75999971505641,41.120686552539695 L116.75999971505641,41.120686552539695 Q113.86626640110723,41.120686552539695 111.59261879728999,39.94941354451262 L111.59261879728999,39.94941354451262 L111.59261879728999,39.94941354451262 Q109.2960050560605,38.80110667389789 108.03286749838423,36.73415430679131 L108.03286749838423,36.73415430679131 L108.03286749838423,36.73415430679131 Q106.769729940708,34.69016807709704 106.769729940708,32.07202841209539 L106.769729940708,32.07202841209539 L106.769729940708,32.07202841209539 Q106.769729940708,29.476854884506054 108.03286749838423,27.432868654811784 L108.03286749838423,27.432868654811784 L108.03286749838423,27.432868654811784 Q109.2960050560605,25.388882425117487 111.59261879728999,24.240575554502755 L111.59261879728999,24.240575554502755 L111.59261879728999,24.240575554502755 Q113.86626640110723,23.115234821300277 116.75999971505641,23.115234821300277 L116.75999971505641,23.115234821300277 L116.75999971505641,23.115234821300277 Q119.7226314412425,23.115234821300277 121.88144835799824,24.378372378976508 L121.88144835799824,24.378372378976508 L121.88144835799824,24.378372378976508 Q124.0172991373417,25.64150993665274 124.93594463383349,27.892191403057666 L124.93594463383349,27.892191403057666 L120.20492032690069,30.303635831348657 L120.20492032690069,30.303635831348657 Q119.01068118146134,27.96108981529457 116.73703357764413,27.96108981529457 L116.73703357764413,27.96108981529457 L116.73703357764413,27.96108981529457 Q115.08347168395886,27.96108981529457 114.00406322558098,29.063464411084738 L114.00406322558098,29.063464411084738 L114.00406322558098,29.063464411084738 Q112.92465476720312,30.142872869462593 112.92465476720312,32.07202841209539 L112.92465476720312,32.07202841209539 L112.92465476720312,32.07202841209539 Q112.92465476720312,34.047116229552785 114.00406322558098,35.14949082534295 L114.00406322558098,35.14949082534295 L114.00406322558098,35.14949082534295 Q115.08347168395886,36.25186542113312 116.73703357764413,36.25186542113312 L116.73703357764413,36.25186542113312 L116.73703357764413,36.25186542113312 Q119.01068118146134,36.25186542113312 120.20492032690069,33.909319405079 L120.20492032690069,33.909319405079 L124.93594463383349,36.320763833369995 L124.93594463383349,36.320763833369995 Q124.0172991373417,38.57144529977492 121.88144835799824,39.857548994863464 L121.88144835799824,39.857548994863464 L121.88144835799824,39.857548994863464 Q119.7226314412425,41.120686552539695 116.75999971505641,41.120686552539695 L116.75999971505641,41.120686552539695 zM133.06595727778597,25.480746974766674 L133.06595727778597,25.480746974766674 Q133.9846027742778,24.30947396673963 135.50036784348927,23.71235439401994 L135.50036784348927,23.71235439401994 L135.50036784348927,23.71235439401994 Q136.99316677528844,23.115234821300277 138.92232231792124,23.115234821300277 L138.92232231792124,23.115234821300277 L138.92232231792124,28.604141662838828 L138.92232231792124,28.604141662838828 Q138.07257523366633,28.51227711318964 137.52138793577123,28.51227711318964 L137.52138793577123,28.51227711318964 L137.52138793577123,28.51227711318964 Q135.56926625572615,28.51227711318964 134.46689165993598,29.568719434155213 L134.46689165993598,29.568719434155213 L134.46689165993598,29.568719434155213 Q133.34155092673353,30.625161755120786 133.34155092673353,32.82991094670115 L133.34155092673353,32.82991094670115 L133.34155092673353,40.82212676617985 L127.23255837506301,40.82212676617985 L127.23255837506301,23.39082847024781 L133.06595727778597,23.39082847024781 L133.06595727778597,25.480746974766674 zM148.91259209226965,23.115234821300277 L148.91259209226965,23.115234821300277 Q153.25319206319344,23.115234821300277 155.52683966701068,25.09032263875767 L155.52683966701068,25.09032263875767 L155.52683966701068,25.09032263875767 Q157.82345340824017,27.065410456215034 157.82345340824017,31.153382915603572 L157.82345340824017,31.153382915603572 L157.82345340824017,40.82212676617985 L152.12785132999096,40.82212676617985 L152.12785132999096,38.57144529977492 L152.12785132999096,38.57144529977492 Q150.81878149749014,41.120686552539695 146.98343654963685,41.120686552539695 L146.98343654963685,41.120686552539695 L146.98343654963685,41.120686552539695 Q144.9624164573549,41.120686552539695 143.4696175255557,40.40873629275853 L143.4696175255557,40.40873629275853 L143.4696175255557,40.40873629275853 Q141.9997847311688,39.6967860329774 141.24190219656305,38.502546887538045 L141.24190219656305,38.502546887538045 L141.24190219656305,38.502546887538045 Q140.48401966195732,37.28534160468638 140.48401966195732,35.746610398062614 L140.48401966195732,35.746610398062614 L140.48401966195732,35.746610398062614 Q140.48401966195732,33.266267557534746 142.3902090671778,31.911265450209328 L142.3902090671778,31.911265450209328 L142.3902090671778,31.911265450209328 Q144.273432334986,30.533297205471627 148.24657410731308,30.533297205471627 L148.24657410731308,30.533297205471627 L151.71446085656964,30.533297205471627 L151.71446085656964,30.533297205471627 Q151.55369789468358,27.777360715996195 148.01691273319014,27.777360715996195 L148.01691273319014,27.777360715996195 L148.01691273319014,27.777360715996195 Q146.7537751755139,27.777360715996195 145.46767148042537,28.1677850520052 L145.46767148042537,28.1677850520052 L145.46767148042537,28.1677850520052 Q144.18156778533685,28.581175525426545 143.28588842625732,29.29312578520768 L143.28588842625732,29.29312578520768 L141.21893605915076,25.136254913582263 L141.21893605915076,25.136254913582263 Q142.66580271612537,24.17167714226585 144.7557212206442,23.643455981783063 L144.7557212206442,23.643455981783063 L144.7557212206442,23.643455981783063 Q146.82267358775078,23.115234821300277 148.91259209226965,23.115234821300277 L148.91259209226965,23.115234821300277 zM148.6829307181467,37.2623754672741 L148.6829307181467,37.2623754672741 Q149.73937303911225,37.2623754672741 150.5431878485426,36.73415430679131 L150.5431878485426,36.73415430679131 L150.5431878485426,36.73415430679131 Q151.34700265797295,36.22889928372081 151.71446085656964,35.24135537499211 L151.71446085656964,35.24135537499211 L151.71446085656964,33.725590305780656 L149.0733550541557,33.725590305780656 L149.0733550541557,33.725590305780656 Q146.40928311432947,33.725590305780656 146.40928311432947,35.49398288652736 L146.40928311432947,35.49398288652736 L146.40928311432947,35.49398288652736 Q146.40928311432947,36.29779769595771 147.00640268704916,36.780086581615905 L147.00640268704916,36.780086581615905 L147.00640268704916,36.780086581615905 Q147.6264883971811,37.2623754672741 148.6829307181467,37.2623754672741 L148.6829307181467,37.2623754672741 zM184.3723082568534,23.115234821300277 L184.3723082568534,23.115234821300277 Q187.58756749457473,23.115234821300277 189.5167230372075,25.044390363933076 L189.5167230372075,25.044390363933076 L189.5167230372075,25.044390363933076 Q191.422912442428,26.973545906565874 191.422912442428,30.854823129243755 L191.422912442428,30.854823129243755 L191.422912442428,40.82212676617985 L185.3139198907575,40.82212676617985 L185.3139198907575,31.865333175384734 L185.3139198907575,31.865333175384734 Q185.3139198907575,30.028042182401123 184.62493576838864,29.155328960733897 L184.62493576838864,29.155328960733897 L184.62493576838864,29.155328960733897 Q183.93595164601976,28.2826157390667 182.67281408834356,28.2826157390667 L182.67281408834356,28.2826157390667 L182.67281408834356,28.2826157390667 Q181.29484584360583,28.2826157390667 180.4450987593509,29.247193510383084 L180.4450987593509,29.247193510383084 L180.4450987593509,29.247193510383084 Q179.61831781250828,30.211771281699498 179.61831781250828,32.18685909915686 L179.61831781250828,32.18685909915686 L179.61831781250828,40.82212676617985 L173.50932526083778,40.82212676617985 L173.50932526083778,31.865333175384734 L173.50932526083778,31.865333175384734 Q173.50932526083778,28.2826157390667 170.86821945842382,28.2826157390667 L170.86821945842382,28.2826157390667 L170.86821945842382,28.2826157390667 Q169.4672850762738,28.2826157390667 168.6175379920189,29.247193510383084 L168.6175379920189,29.247193510383084 L168.6175379920189,29.247193510383084 Q167.79075704517626,30.211771281699498 167.79075704517626,32.18685909915686 L167.79075704517626,32.18685909915686 L167.79075704517626,40.82212676617985 L161.68176449350577,40.82212676617985 L161.68176449350577,23.39082847024781 L167.49219725881645,23.39082847024781 L167.49219725881645,25.228119463231423 L167.49219725881645,25.228119463231423 Q168.45677503013283,24.17167714226585 169.78881100004594,23.643455981783063 L169.78881100004594,23.643455981783063 L169.78881100004594,23.643455981783063 Q171.12084696995908,23.115234821300277 172.70551045140743,23.115234821300277 L172.70551045140743,23.115234821300277 L172.70551045140743,23.115234821300277 Q174.54280144439105,23.115234821300277 175.98966810136562,23.781252806256845 L175.98966810136562,23.781252806256845 L175.98966810136562,23.781252806256845 Q177.43653475834026,24.470236928625695 178.33221411741977,25.848205173363397 L178.33221411741977,25.848205173363397 L178.33221411741977,25.848205173363397 Q179.36569030097303,24.51616920345029 180.9273876450091,23.82718508108144 L180.9273876450091,23.82718508108144 L180.9273876450091,23.82718508108144 Q182.5120511264575,23.115234821300277 184.3723082568534,23.115234821300277 L184.3723082568534,23.115234821300277 zM206.2360710733584,23.115234821300277 L206.2360710733584,23.115234821300277 Q208.62454936423708,23.115234821300277 210.57667104428216,24.19464327967816 L210.57667104428216,24.19464327967816 L210.57667104428216,24.19464327967816 Q212.50582658691496,25.297017875468327 213.65413345752972,27.341004105162597 L213.65413345752972,27.341004105162597 L213.65413345752972,27.341004105162597 Q214.80244032814448,29.384990334856866 214.80244032814448,32.07202841209539 L214.80244032814448,32.07202841209539 L214.80244032814448,32.07202841209539 Q214.80244032814448,34.78203262674623 213.65413345752972,36.84898499385278 L213.65413345752972,36.84898499385278 L213.65413345752972,36.84898499385278 Q212.50582658691496,38.89297122354705 210.57667104428216,40.01831195674953 L210.57667104428216,40.01831195674953 L210.57667104428216,40.01831195674953 Q208.62454936423708,41.120686552539695 206.2360710733584,41.120686552539695 L206.2360710733584,41.120686552539695 L206.2360710733584,41.120686552539695 Q202.79115046151412,41.120686552539695 201.09165629300426,39.09966646025771 L201.09165629300426,39.09966646025771 L201.09165629300426,40.82212676617985 L195.28122352769358,40.82212676617985 L195.28122352769358,16.960309994805186 L201.3902160793641,16.960309994805186 L201.3902160793641,24.906593539459294 L201.3902160793641,24.906593539459294 Q203.15860866011081,23.115234821300277 206.2360710733584,23.115234821300277 L206.2360710733584,23.115234821300277 zM204.94996737826983,36.25186542113312 L204.94996737826983,36.25186542113312 Q206.55759699713053,36.25186542113312 207.5910731806838,35.14949082534295 L207.5910731806838,35.14949082534295 L207.5910731806838,35.14949082534295 Q208.62454936423708,34.047116229552785 208.62454936423708,32.07202841209539 L208.62454936423708,32.07202841209539 L208.62454936423708,32.07202841209539 Q208.62454936423708,30.142872869462593 207.5910731806838,29.063464411084738 L207.5910731806838,29.063464411084738 L207.5910731806838,29.063464411084738 Q206.55759699713053,27.96108981529457 204.94996737826983,27.96108981529457 L204.94996737826983,27.96108981529457 L204.94996737826983,27.96108981529457 Q203.3423377594092,27.96108981529457 202.3088615758559,29.063464411084738 L202.3088615758559,29.063464411084738 L202.3088615758559,29.063464411084738 Q201.29835152971492,30.142872869462593 201.29835152971492,32.07202841209539 L201.29835152971492,32.07202841209539 L201.29835152971492,32.07202841209539 Q201.29835152971492,34.047116229552785 202.3088615758559,35.14949082534295 L202.3088615758559,35.14949082534295 L202.3088615758559,35.14949082534295 Q203.3423377594092,36.25186542113312 204.94996737826983,36.25186542113312 L204.94996737826983,36.25186542113312 zM217.62727522985676,40.82212676617985 L217.62727522985676,16.960309994805186 L223.73626778152732,16.960309994805186 L223.73626778152732,40.82212676617985 L217.62727522985676,40.82212676617985 z" stroke-width="0" id="svg_2"/></g><g data-v-fde0c5aa="" id="a1f82587-03ad-4197-b2db-efa1de3ffa46" stroke="none" fill="#92D8FF" class=""><path d="M33.183905032947564,24.0400625424775 a7.1405552002275305,7.1405552002275305 0 0 1 10.12416746698927,0 a7.20661667473944,7.20661667473944 0 0 1 0,10.162621161108142 a7.1405552002275305,7.1405552002275305 0 0 1 -10.12416746698927,0 a7.204644690425652,7.204644690425652 0 0 1 0,-10.162621161108142 zM38.245988766442196,10.8800252244111 C18.971814083475095,10.8800252244111 3.7362632751464844,29.120880126953125 3.7362632751464844,29.120880126953125 s15.235550808328611,18.240854902542022 34.50972549129572,18.240854902542022 c4.0997553883659315,0 8.015130243392653,-0.8272474196342032 11.641609396449386,-2.125799090263816 l-4.766286086426385,-4.785019937407374 c-5.087719529573882,3.115735215785556 -11.819087984690336,2.4679383687060907 -16.219570980908987,-1.9493064941797607 c-5.161668941340945,-5.180402792321933 -5.161668941340945,-13.58006997690331 0,-18.761458761382137 c5.161668941340945,-5.180402792321933 13.52978437690171,-5.180402792321933 18.69046732608576,0 c4.400482996218651,4.417244862885852 5.046307858984328,11.17326312192466 1.9424045490815014,16.280702494636426 L55.99384759053714,42.50572365679139 C66.08744930066268,37.102486637011395 72.7557142577379,29.120880126953125 72.7557142577379,29.120880126953125 S57.52016344940931,10.8800252244111 38.245988766442196,10.8800252244111 z" stroke-width="0" id="svg_3"/></g></g></svg>