<svg xmlns="http://www.w3.org/2000/svg" data-v-fde0c5aa="" width="80" height="45" style=""><rect id="backgroundrect" width="100%" height="100%" x="0" y="0" fill="none" stroke="none" class="" style=""/><!----><defs data-v-fde0c5aa=""><!----></defs><defs data-v-fde0c5aa=""><!----></defs><defs data-v-fde0c5aa=""><!----></defs><!----><g class="currentLayer" style=""><title>Layer 1</title><g data-v-fde0c5aa="" id="9ee18ecd-1c16-45cd-84d1-37d4c6d1b74c" fill="#ffffff" class=""><path d="M435.9000955674019,147.87485428432322 L435.9000955674019,147.87485428432322 Q433.16712521533873,147.87485428432322 430.5949178251617,147.18587016195437 L430.5949178251617,147.18587016195437 L430.5949178251617,147.18587016195437 Q428.0227104349846,146.5198521769978 426.4150808161239,145.39451144379535 L426.4150808161239,145.39451144379535 L428.5049993206428,140.70941941168712 L428.5049993206428,140.70941941168712 Q430.0207643898543,141.69696332041582 432.01881834472397,142.3170490305478 L432.01881834472397,142.3170490305478 L432.01881834472397,142.3170490305478 Q434.0168722995936,142.91416860326746 435.94602784222644,142.91416860326746 L435.94602784222644,142.91416860326746 L435.94602784222644,142.91416860326746 Q439.5976436907814,142.91416860326746 439.5976436907814,141.07687761028384 L439.5976436907814,141.07687761028384 L439.5976436907814,141.07687761028384 Q439.5976436907814,140.11229983896746 438.5641675072281,139.65297709072155 L438.5641675072281,139.65297709072155 L438.5641675072281,139.65297709072155 Q437.5077251862625,139.19365434247564 435.211111445033,138.66543318199285 L435.211111445033,138.66543318199285 L435.211111445033,138.66543318199285 Q432.6618701922682,138.13721202151007 430.9623760237584,137.4941601739658 L430.9623760237584,137.4941601739658 L430.9623760237584,137.4941601739658 Q429.26288185524857,136.87407446383384 428.0227104349846,135.49610621909613 L428.0227104349846,135.49610621909613 L428.0227104349846,135.49610621909613 Q426.805505152133,134.1181379743584 426.805505152133,131.752625820892 L426.805505152133,131.752625820892 L426.805505152133,131.752625820892 Q426.805505152133,129.70863959119774 427.93084588533543,128.0550776975125 L427.93084588533543,128.0550776975125 L427.93084588533543,128.0550776975125 Q429.0561866185379,126.40151580382724 431.30686808494283,125.43693803251085 L431.30686808494283,125.43693803251085 L431.30686808494283,125.43693803251085 Q433.5345834139355,124.47236026119444 436.7728087890691,124.47236026119444 L436.7728087890691,124.47236026119444 L436.7728087890691,124.47236026119444 Q439.00052411806166,124.47236026119444 441.15934103481743,124.95464914685263 L441.15934103481743,124.95464914685263 L441.15934103481743,124.95464914685263 Q443.2951918141609,125.45990416992313 444.94875370784615,126.42448194123952 L444.94875370784615,126.42448194123952 L442.97366589038876,131.15550624817234 L442.97366589038876,131.15550624817234 Q439.7584066526674,129.4100798048379 436.74984265165676,129.4100798048379 L436.74984265165676,129.4100798048379 L436.74984265165676,129.4100798048379 Q434.84365324643625,129.4100798048379 433.97094002476905,129.98423324014527 L433.97094002476905,129.98423324014527 L433.97094002476905,129.98423324014527 Q433.1211929405141,130.53542053804037 433.1211929405141,131.43109989711988 L433.1211929405141,131.43109989711988 L433.1211929405141,131.43109989711988 Q433.1211929405141,132.34974539361167 434.1317029866551,132.7861020044453 L434.1317029866551,132.7861020044453 L434.1317029866551,132.7861020044453 Q435.1651791702084,133.24542475269118 437.4617929114379,133.7277136383494 L437.4617929114379,133.7277136383494 L437.4617929114379,133.7277136383494 Q440.034000301615,134.27890093624447 441.71052833271256,134.89898664637644 L441.71052833271256,134.89898664637644 L441.71052833271256,134.89898664637644 Q443.4100225012224,135.51907235650842 444.627227784074,136.89704060124612 L444.627227784074,136.89704060124612 L444.627227784074,136.89704060124612 Q445.86739920433797,138.25204270857154 445.86739920433797,140.59458872462565 L445.86739920433797,140.59458872462565 L445.86739920433797,140.59458872462565 Q445.86739920433797,142.63857495431992 444.74205847113546,144.26917071059287 L444.74205847113546,144.26917071059287 L444.74205847113546,144.26917071059287 Q443.6167177379331,145.89976646686583 441.3660362715281,146.88731037559452 L441.3660362715281,146.88731037559452 L441.3660362715281,146.88731037559452 Q439.11535480512316,147.87485428432322 435.9000955674019,147.87485428432322 L435.9000955674019,147.87485428432322 zM457.41936632272245,147.71409132243716 L457.41936632272245,147.71409132243716 Q454.52563300877324,147.71409132243716 452.25198540495603,146.54281831441008 L452.25198540495603,146.54281831441008 L452.25198540495603,146.54281831441008 Q449.9553716637265,145.39451144379535 448.69223410605025,143.32755907668877 L448.69223410605025,143.32755907668877 L448.69223410605025,143.32755907668877 Q447.429096548374,141.2835728469945 447.429096548374,138.66543318199285 L447.429096548374,138.66543318199285 L447.429096548374,138.66543318199285 Q447.429096548374,136.07025965440351 448.69223410605025,134.02627342470925 L448.69223410605025,134.02627342470925 L448.69223410605025,134.02627342470925 Q449.9553716637265,131.98228719501495 452.25198540495603,130.83398032440022 L452.25198540495603,130.83398032440022 L452.25198540495603,130.83398032440022 Q454.52563300877324,129.70863959119774 457.41936632272245,129.70863959119774 L457.41936632272245,129.70863959119774 L457.41936632272245,129.70863959119774 Q460.3819980489085,129.70863959119774 462.54081496566425,130.97177714887397 L462.54081496566425,130.97177714887397 L462.54081496566425,130.97177714887397 Q464.6766657450077,132.2349147065502 465.59531124149953,134.48559617295513 L465.59531124149953,134.48559617295513 L460.86428693456673,136.89704060124612 L460.86428693456673,136.89704060124612 Q459.67004778912735,134.55449458519203 457.39640018531014,134.55449458519203 L457.39640018531014,134.55449458519203 L457.39640018531014,134.55449458519203 Q455.7428382916249,134.55449458519203 454.663429833247,135.6568691809822 L454.663429833247,135.6568691809822 L454.663429833247,135.6568691809822 Q453.58402137486917,136.73627763936005 453.58402137486917,138.66543318199285 L453.58402137486917,138.66543318199285 L453.58402137486917,138.66543318199285 Q453.58402137486917,140.64052099945025 454.663429833247,141.7428955952404 L454.663429833247,141.7428955952404 L454.663429833247,141.7428955952404 Q455.7428382916249,142.84527019103058 457.39640018531014,142.84527019103058 L457.39640018531014,142.84527019103058 L457.39640018531014,142.84527019103058 Q459.67004778912735,142.84527019103058 460.86428693456673,140.50272417497646 L460.86428693456673,140.50272417497646 L465.59531124149953,142.91416860326746 L465.59531124149953,142.91416860326746 Q464.6766657450077,145.16485006967238 462.54081496566425,146.45095376476092 L462.54081496566425,146.45095376476092 L462.54081496566425,146.45095376476092 Q460.3819980489085,147.71409132243716 457.41936632272245,147.71409132243716 L457.41936632272245,147.71409132243716 zM473.725323885452,132.07415174466414 L473.725323885452,132.07415174466414 Q474.6439693819438,130.9028787366371 476.15973445115526,130.3057591639174 L476.15973445115526,130.3057591639174 L476.15973445115526,130.3057591639174 Q477.65253338295446,129.70863959119774 479.5816889255873,129.70863959119774 L479.5816889255873,129.70863959119774 L479.5816889255873,135.1975464327363 L479.5816889255873,135.1975464327363 Q478.73194184133234,135.1056818830871 478.1807545434373,135.1056818830871 L478.1807545434373,135.1056818830871 L478.1807545434373,135.1056818830871 Q476.22863286339214,135.1056818830871 475.126258267602,136.16212420405267 L475.126258267602,136.16212420405267 L475.126258267602,136.16212420405267 Q474.00091753439955,137.21856652501825 474.00091753439955,139.4233157165986 L474.00091753439955,139.4233157165986 L474.00091753439955,147.4155315360773 L467.89192498272905,147.4155315360773 L467.89192498272905,129.98423324014527 L473.725323885452,129.98423324014527 L473.725323885452,132.07415174466414 zM489.57195869993564,129.70863959119774 L489.57195869993564,129.70863959119774 Q493.9125586708594,129.70863959119774 496.1862062746767,131.68372740865513 L496.1862062746767,131.68372740865513 L496.1862062746767,131.68372740865513 Q498.4828200159062,133.6588152261125 498.4828200159062,137.74678768550103 L498.4828200159062,137.74678768550103 L498.4828200159062,147.4155315360773 L492.787217937657,147.4155315360773 L492.787217937657,145.16485006967238 L492.787217937657,145.16485006967238 Q491.47814810515615,147.71409132243716 487.64280315730286,147.71409132243716 L487.64280315730286,147.71409132243716 L487.64280315730286,147.71409132243716 Q485.6217830650209,147.71409132243716 484.1289841332217,147.002141062656 L484.1289841332217,147.002141062656 L484.1289841332217,147.002141062656 Q482.6591513388348,146.29019080287486 481.90126880422906,145.0959516574355 L481.90126880422906,145.0959516574355 L481.90126880422906,145.0959516574355 Q481.1433862696233,143.87874637458384 481.1433862696233,142.34001516796008 L481.1433862696233,142.34001516796008 L481.1433862696233,142.34001516796008 Q481.1433862696233,139.8596723274322 483.0495756748438,138.5046702201068 L483.0495756748438,138.5046702201068 L483.0495756748438,138.5046702201068 Q484.932798942652,137.1267019753691 488.9059407149791,137.1267019753691 L488.9059407149791,137.1267019753691 L492.37382746423566,137.1267019753691 L492.37382746423566,137.1267019753691 Q492.2130645023496,134.37076548589366 488.6762793408561,134.37076548589366 L488.6762793408561,134.37076548589366 L488.6762793408561,134.37076548589366 Q487.4131417831799,134.37076548589366 486.12703808809135,134.76118982190266 L486.12703808809135,134.76118982190266 L486.12703808809135,134.76118982190266 Q484.84093439300284,135.174580295324 483.94525503392333,135.88653055510514 L483.94525503392333,135.88653055510514 L481.8783026668168,131.72965968347972 L481.8783026668168,131.72965968347972 Q483.3251693237914,130.7650819121633 485.4150878283102,130.23686075168052 L485.4150878283102,130.23686075168052 L485.4150878283102,130.23686075168052 Q487.4820401954168,129.70863959119774 489.57195869993564,129.70863959119774 L489.57195869993564,129.70863959119774 zM489.34229732581275,143.85578023717156 L489.34229732581275,143.85578023717156 Q490.39873964677827,143.85578023717156 491.20255445620865,143.32755907668877 L491.20255445620865,143.32755907668877 L491.20255445620865,143.32755907668877 Q492.00636926563897,142.82230405361827 492.37382746423566,141.83476014488957 L492.37382746423566,141.83476014488957 L492.37382746423566,140.31899507567812 L489.73272166182176,140.31899507567812 L489.73272166182176,140.31899507567812 Q487.0686497219955,140.31899507567812 487.0686497219955,142.08738765642482 L487.0686497219955,142.08738765642482 L487.0686497219955,142.08738765642482 Q487.0686497219955,142.89120246585517 487.6657692947152,143.37349135151337 L487.6657692947152,143.37349135151337 L487.6657692947152,143.37349135151337 Q488.2858550048471,143.85578023717156 489.34229732581275,143.85578023717156 L489.34229732581275,143.85578023717156 zM525.0316748645193,129.70863959119774 L525.0316748645193,129.70863959119774 Q528.2469341022407,129.70863959119774 530.1760896448735,131.63779513383054 L530.1760896448735,131.63779513383054 L530.1760896448735,131.63779513383054 Q532.082279050094,133.56695067646334 532.082279050094,137.44822789914122 L532.082279050094,137.44822789914122 L532.082279050094,147.4155315360773 L525.9732864984235,147.4155315360773 L525.9732864984235,138.4587379452822 L525.9732864984235,138.4587379452822 Q525.9732864984235,136.62144695229858 525.2843023760547,135.74873373063136 L525.2843023760547,135.74873373063136 L525.2843023760547,135.74873373063136 Q524.5953182536857,134.87602050896416 523.3321806960096,134.87602050896416 L523.3321806960096,134.87602050896416 L523.3321806960096,134.87602050896416 Q521.9542124512718,134.87602050896416 521.1044653670169,135.84059828028055 L521.1044653670169,135.84059828028055 L521.1044653670169,135.84059828028055 Q520.2776844201743,136.80517605159696 520.2776844201743,138.78026386905432 L520.2776844201743,138.78026386905432 L520.2776844201743,147.4155315360773 L514.1686918685039,147.4155315360773 L514.1686918685039,138.4587379452822 L514.1686918685039,138.4587379452822 Q514.1686918685039,134.87602050896416 511.52758606608984,134.87602050896416 L511.52758606608984,134.87602050896416 L511.52758606608984,134.87602050896416 Q510.1266516839398,134.87602050896416 509.27690459968494,135.84059828028055 L509.27690459968494,135.84059828028055 L509.27690459968494,135.84059828028055 Q508.4501236528423,136.80517605159696 508.4501236528423,138.78026386905432 L508.4501236528423,138.78026386905432 L508.4501236528423,147.4155315360773 L502.34113110117175,147.4155315360773 L502.34113110117175,129.98423324014527 L508.15156386648243,129.98423324014527 L508.15156386648243,131.82152423312888 L508.15156386648243,131.82152423312888 Q509.1161416377988,130.7650819121633 510.44817760771195,130.23686075168052 L510.44817760771195,130.23686075168052 L510.44817760771195,130.23686075168052 Q511.7802135776251,129.70863959119774 513.3648770590735,129.70863959119774 L513.3648770590735,129.70863959119774 L513.3648770590735,129.70863959119774 Q515.202168052057,129.70863959119774 516.6490347090316,130.3746575761543 L516.6490347090316,130.3746575761543 L516.6490347090316,130.3746575761543 Q518.0959013660063,131.06364169852316 518.9915807250858,132.44160994326086 L518.9915807250858,132.44160994326086 L518.9915807250858,132.44160994326086 Q520.025056908639,131.10957397334775 521.5867542526751,130.4205898509789 L521.5867542526751,130.4205898509789 L521.5867542526751,130.4205898509789 Q523.1714177341235,129.70863959119774 525.0316748645193,129.70863959119774 L525.0316748645193,129.70863959119774 zM546.8954376810244,129.70863959119774 L546.8954376810244,129.70863959119774 Q549.2839159719031,129.70863959119774 551.2360376519482,130.78804804957562 L551.2360376519482,130.78804804957562 L551.2360376519482,130.78804804957562 Q553.165193194581,131.8904226453658 554.3135000651957,133.93440887506006 L554.3135000651957,133.93440887506006 L554.3135000651957,133.93440887506006 Q555.4618069358105,135.97839510475433 555.4618069358105,138.66543318199285 L555.4618069358105,138.66543318199285 L555.4618069358105,138.66543318199285 Q555.4618069358105,141.3754373966437 554.3135000651957,143.44238976375024 L554.3135000651957,143.44238976375024 L554.3135000651957,143.44238976375024 Q553.165193194581,145.4863759934445 551.2360376519482,146.611716726647 L551.2360376519482,146.611716726647 L551.2360376519482,146.611716726647 Q549.2839159719031,147.71409132243716 546.8954376810244,147.71409132243716 L546.8954376810244,147.71409132243716 L546.8954376810244,147.71409132243716 Q543.4505170691801,147.71409132243716 541.7510229006703,145.69307123015517 L541.7510229006703,145.69307123015517 L541.7510229006703,147.4155315360773 L535.9405901353596,147.4155315360773 L535.9405901353596,123.55371476470265 L542.0495826870301,123.55371476470265 L542.0495826870301,131.49999830935676 L542.0495826870301,131.49999830935676 Q543.8179752677768,129.70863959119774 546.8954376810244,129.70863959119774 L546.8954376810244,129.70863959119774 zM545.6093339859358,142.84527019103058 L545.6093339859358,142.84527019103058 Q547.2169636047965,142.84527019103058 548.2504397883498,141.7428955952404 L548.2504397883498,141.7428955952404 L548.2504397883498,141.7428955952404 Q549.2839159719031,140.64052099945025 549.2839159719031,138.66543318199285 L549.2839159719031,138.66543318199285 L549.2839159719031,138.66543318199285 Q549.2839159719031,136.73627763936005 548.2504397883498,135.6568691809822 L548.2504397883498,135.6568691809822 L548.2504397883498,135.6568691809822 Q547.2169636047965,134.55449458519203 545.6093339859358,134.55449458519203 L545.6093339859358,134.55449458519203 L545.6093339859358,134.55449458519203 Q544.0017043670753,134.55449458519203 542.9682281835219,135.6568691809822 L542.9682281835219,135.6568691809822 L542.9682281835219,135.6568691809822 Q541.9577181373809,136.73627763936005 541.9577181373809,138.66543318199285 L541.9577181373809,138.66543318199285 L541.9577181373809,138.66543318199285 Q541.9577181373809,140.64052099945025 542.9682281835219,141.7428955952404 L542.9682281835219,141.7428955952404 L542.9682281835219,141.7428955952404 Q544.0017043670753,142.84527019103058 545.6093339859358,142.84527019103058 L545.6093339859358,142.84527019103058 zM558.2866418375228,147.4155315360773 L558.2866418375228,123.55371476470265 L564.3956343891933,123.55371476470265 L564.3956343891933,147.4155315360773 L558.2866418375228,147.4155315360773 z" stroke-width="0" id="svg_2"/></g><g data-v-fde0c5aa="" id="a1f82587-03ad-4197-b2db-efa1de3ffa46" stroke="none" fill="#92D8FF" class="selected"><path d="M34.832254794910455,17.446648235836875 a7.1405552002275305,7.1405552002275305 0 0 1 10.12416746698927,0 a7.20661667473944,7.20661667473944 0 0 1 0,10.162621161108142 a7.1405552002275305,7.1405552002275305 0 0 1 -10.12416746698927,0 a7.204644690425652,7.204644690425652 0 0 1 0,-10.162621161108142 zM39.894338528405086,4.286610917770474 C20.620163845437986,4.286610917770474 5.384613037109375,22.5274658203125 5.384613037109375,22.5274658203125 s15.235550808328611,18.240854902542022 34.50972549129572,18.240854902542022 c4.0997553883659315,0 8.015130243392653,-0.8272474196342039 11.641609396449386,-2.125799090263816 l-4.766286086426385,-4.785019937407374 c-5.087719529573882,3.115735215785556 -11.819087984690336,2.4679383687060907 -16.219570980908987,-1.9493064941797607 c-5.161668941340945,-5.180402792321933 -5.161668941340945,-13.58006997690331 0,-18.761458761382137 c5.161668941340945,-5.180402792321933 13.52978437690171,-5.180402792321933 18.69046732608576,0 c4.400482996218651,4.417244862885852 5.046307858984328,11.17326312192466 1.9424045490815014,16.280702494636426 L57.642197352500034,35.912309350150764 C67.73579906262557,30.50907233037077 74.4040640197008,22.5274658203125 74.4040640197008,22.5274658203125 S59.1685132113722,4.286610917770474 39.894338528405086,4.286610917770474 z" stroke-width="0" id="svg_3"/></g></g></svg>